<mxfile host="Electron" agent="Mozilla/5.0 (Macintosh; Intel Mac OS X 10_15_7) AppleWebKit/537.36 (KHTML, like Gecko) draw.io/28.0.6 Chrome/138.0.7204.100 Electron/37.2.3 Safari/537.36" version="28.0.6">
  <diagram name="Page-1" id="V7LjECoe9bcYNrktIR_3">
    <mxGraphModel dx="946" dy="679" grid="1" gridSize="10" guides="1" tooltips="1" connect="1" arrows="1" fold="1" page="1" pageScale="1" pageWidth="850" pageHeight="1100" math="0" shadow="0">
      <root>
        <mxCell id="0" />
        <mxCell id="1" parent="0" />
        <mxCell id="WzGXvEoTK6vFrNUiETrb-26" value="" style="edgeStyle=orthogonalEdgeStyle;rounded=0;sketch=1;hachureGap=4;jiggle=2;curveFitting=1;orthogonalLoop=1;jettySize=auto;html=1;fontFamily=Times New Roman;fontSize=24;labelBackgroundColor=none;" edge="1" parent="1" source="xj99DeK8iz7ToHMCPPsC-1" target="xj99DeK8iz7ToHMCPPsC-2">
          <mxGeometry relative="1" as="geometry" />
        </mxCell>
        <mxCell id="xj99DeK8iz7ToHMCPPsC-1" value="Client" style="rounded=1;whiteSpace=wrap;html=1;sketch=1;hachureGap=4;jiggle=2;curveFitting=1;fontFamily=Times New Roman;fontSize=24;labelBackgroundColor=none;fillColor=#fad7ac;strokeColor=#b46504;" parent="1" vertex="1">
          <mxGeometry x="80" y="200" width="120" height="60" as="geometry" />
        </mxCell>
        <mxCell id="xj99DeK8iz7ToHMCPPsC-4" value="" style="edgeStyle=orthogonalEdgeStyle;rounded=0;sketch=1;hachureGap=4;jiggle=2;curveFitting=1;orthogonalLoop=1;jettySize=auto;html=1;fontFamily=Times New Roman;entryX=0;entryY=0.148;entryDx=0;entryDy=0;entryPerimeter=0;fontSize=24;labelBackgroundColor=none;" parent="1" source="xj99DeK8iz7ToHMCPPsC-2" edge="1" target="WzGXvEoTK6vFrNUiETrb-4">
          <mxGeometry relative="1" as="geometry">
            <mxPoint x="399" y="350" as="targetPoint" />
          </mxGeometry>
        </mxCell>
        <mxCell id="xj99DeK8iz7ToHMCPPsC-5" value="&lt;span style=&quot;caret-color: rgb(0, 122, 255); color: rgb(51, 51, 51); orphans: 4; text-align: left; white-space: pre-wrap;&quot;&gt;begin_detaching&lt;/span&gt;" style="edgeLabel;html=1;align=center;verticalAlign=middle;resizable=0;points=[];sketch=1;hachureGap=4;jiggle=2;curveFitting=1;fontFamily=Times New Roman;fontSize=24;labelBackgroundColor=default;" parent="xj99DeK8iz7ToHMCPPsC-4" vertex="1" connectable="0">
          <mxGeometry x="0.0286" relative="1" as="geometry">
            <mxPoint as="offset" />
          </mxGeometry>
        </mxCell>
        <mxCell id="xj99DeK8iz7ToHMCPPsC-7" value="" style="edgeStyle=orthogonalEdgeStyle;rounded=0;sketch=1;hachureGap=4;jiggle=2;curveFitting=1;orthogonalLoop=1;jettySize=auto;html=1;fontFamily=Times New Roman;fontSize=24;labelBackgroundColor=none;" parent="1" source="xj99DeK8iz7ToHMCPPsC-2" target="xj99DeK8iz7ToHMCPPsC-6" edge="1">
          <mxGeometry relative="1" as="geometry" />
        </mxCell>
        <mxCell id="xj99DeK8iz7ToHMCPPsC-2" value="nova-api" style="rounded=1;whiteSpace=wrap;html=1;sketch=1;hachureGap=4;jiggle=2;curveFitting=1;fontFamily=Times New Roman;fontSize=24;labelBackgroundColor=none;fillColor=#b1ddf0;strokeColor=#10739e;" parent="1" vertex="1">
          <mxGeometry x="80" y="320" width="120" height="60" as="geometry" />
        </mxCell>
        <mxCell id="xj99DeK8iz7ToHMCPPsC-15" value="" style="edgeStyle=orthogonalEdgeStyle;rounded=0;sketch=1;hachureGap=4;jiggle=2;curveFitting=1;orthogonalLoop=1;jettySize=auto;html=1;fontFamily=Times New Roman;fontSize=24;labelBackgroundColor=none;" parent="1" source="xj99DeK8iz7ToHMCPPsC-6" target="xj99DeK8iz7ToHMCPPsC-14" edge="1">
          <mxGeometry relative="1" as="geometry" />
        </mxCell>
        <mxCell id="xj99DeK8iz7ToHMCPPsC-6" value="nova-compute" style="rounded=1;whiteSpace=wrap;html=1;sketch=1;hachureGap=4;jiggle=2;curveFitting=1;fontFamily=Times New Roman;fontSize=24;labelBackgroundColor=none;fillColor=#b1ddf0;strokeColor=#10739e;" parent="1" vertex="1">
          <mxGeometry x="70" y="460" width="140" height="60" as="geometry" />
        </mxCell>
        <mxCell id="WzGXvEoTK6vFrNUiETrb-21" value="" style="edgeStyle=orthogonalEdgeStyle;rounded=0;sketch=1;hachureGap=4;jiggle=2;curveFitting=1;orthogonalLoop=1;jettySize=auto;html=1;fontFamily=Times New Roman;entryX=0.01;entryY=0.644;entryDx=0;entryDy=0;entryPerimeter=0;fontSize=24;labelBackgroundColor=none;" edge="1" parent="1" source="xj99DeK8iz7ToHMCPPsC-14" target="WzGXvEoTK6vFrNUiETrb-1">
          <mxGeometry relative="1" as="geometry" />
        </mxCell>
        <mxCell id="xj99DeK8iz7ToHMCPPsC-14" value="libvirt" style="rounded=1;whiteSpace=wrap;html=1;sketch=1;hachureGap=4;jiggle=2;curveFitting=1;fontFamily=Times New Roman;fontSize=24;labelBackgroundColor=none;fillColor=#fad9d5;strokeColor=#ae4132;" parent="1" vertex="1">
          <mxGeometry x="80" y="600" width="120" height="60" as="geometry" />
        </mxCell>
        <mxCell id="WzGXvEoTK6vFrNUiETrb-9" value="" style="edgeStyle=orthogonalEdgeStyle;rounded=0;sketch=1;hachureGap=4;jiggle=2;curveFitting=1;orthogonalLoop=1;jettySize=auto;html=1;fontFamily=Times New Roman;exitX=1;exitY=0;exitDx=0;exitDy=120;exitPerimeter=0;dashed=1;fontSize=24;labelBackgroundColor=none;" edge="1" parent="1" source="WzGXvEoTK6vFrNUiETrb-1" target="WzGXvEoTK6vFrNUiETrb-13">
          <mxGeometry relative="1" as="geometry">
            <mxPoint x="405" y="489.5" as="sourcePoint" />
            <mxPoint x="558" y="488.51" as="targetPoint" />
            <Array as="points">
              <mxPoint x="655" y="640" />
            </Array>
          </mxGeometry>
        </mxCell>
        <mxCell id="WzGXvEoTK6vFrNUiETrb-1" value="" style="shape=cylinder3;whiteSpace=wrap;html=1;boundedLbl=1;backgroundOutline=1;size=15;sketch=1;hachureGap=4;jiggle=2;curveFitting=1;fontFamily=Times New Roman;fillColor=#fff2cc;strokeColor=#d6b656;fontSize=24;labelBackgroundColor=none;" vertex="1" parent="1">
          <mxGeometry x="255" y="520" width="285" height="170" as="geometry" />
        </mxCell>
        <mxCell id="WzGXvEoTK6vFrNUiETrb-20" value="" style="edgeStyle=orthogonalEdgeStyle;rounded=0;sketch=1;hachureGap=4;jiggle=2;curveFitting=1;orthogonalLoop=1;jettySize=auto;html=1;fontFamily=Times New Roman;dashed=1;strokeWidth=1;fontSize=24;labelBackgroundColor=none;" edge="1" parent="1" source="WzGXvEoTK6vFrNUiETrb-2" target="WzGXvEoTK6vFrNUiETrb-19">
          <mxGeometry relative="1" as="geometry" />
        </mxCell>
        <mxCell id="WzGXvEoTK6vFrNUiETrb-2" value="VM" style="rounded=1;whiteSpace=wrap;html=1;sketch=1;hachureGap=4;jiggle=2;curveFitting=1;fontFamily=Times New Roman;fillColor=#f8cecc;strokeColor=#b85450;fontSize=24;labelBackgroundColor=none;" vertex="1" parent="1">
          <mxGeometry x="270" y="605" width="115" height="70" as="geometry" />
        </mxCell>
        <mxCell id="WzGXvEoTK6vFrNUiETrb-25" value="" style="edgeStyle=orthogonalEdgeStyle;rounded=0;sketch=1;hachureGap=4;jiggle=2;curveFitting=1;orthogonalLoop=1;jettySize=auto;html=1;fontFamily=Times New Roman;fontSize=24;labelBackgroundColor=none;" edge="1" parent="1" source="WzGXvEoTK6vFrNUiETrb-4" target="WzGXvEoTK6vFrNUiETrb-24">
          <mxGeometry relative="1" as="geometry" />
        </mxCell>
        <mxCell id="WzGXvEoTK6vFrNUiETrb-4" value="" style="shape=cylinder3;whiteSpace=wrap;html=1;boundedLbl=1;backgroundOutline=1;size=15;sketch=1;hachureGap=4;jiggle=2;curveFitting=1;fontFamily=Times New Roman;fillColor=#d5e8d4;strokeColor=#82b366;fontSize=24;labelBackgroundColor=none;" vertex="1" parent="1">
          <mxGeometry x="570" y="310" width="200" height="270" as="geometry" />
        </mxCell>
        <mxCell id="WzGXvEoTK6vFrNUiETrb-5" value="Compute/Host" style="text;html=1;align=center;verticalAlign=middle;whiteSpace=wrap;rounded=0;fontFamily=Times New Roman;fontSize=24;labelBackgroundColor=none;" vertex="1" parent="1">
          <mxGeometry x="365" y="550" width="80" height="35" as="geometry" />
        </mxCell>
        <mxCell id="WzGXvEoTK6vFrNUiETrb-13" value="&lt;span style=&quot;&quot;&gt;Volume&lt;/span&gt;" style="html=1;whiteSpace=wrap;shape=isoCube2;backgroundOutline=1;isoAngle=15;sketch=1;hachureGap=4;jiggle=2;curveFitting=1;fontFamily=Times New Roman;fontSize=24;labelBackgroundColor=none;fillColor=#b1ddf0;strokeColor=#10739e;" vertex="1" parent="1">
          <mxGeometry x="620" y="450" width="70" height="80" as="geometry" />
        </mxCell>
        <mxCell id="WzGXvEoTK6vFrNUiETrb-14" value="&lt;span&gt;Cinder/Storage&lt;/span&gt;" style="text;html=1;align=center;verticalAlign=middle;whiteSpace=wrap;rounded=0;fontFamily=Times New Roman;fontSize=24;labelBackgroundColor=none;" vertex="1" parent="1">
          <mxGeometry x="640" y="350" width="60" height="30" as="geometry" />
        </mxCell>
        <mxCell id="WzGXvEoTK6vFrNUiETrb-19" value="&lt;span style=&quot;&quot;&gt;Volume&lt;/span&gt;" style="html=1;whiteSpace=wrap;shape=isoCube2;backgroundOutline=1;isoAngle=15;sketch=1;hachureGap=4;jiggle=2;curveFitting=1;fontFamily=Times New Roman;dashed=1;dashPattern=8 8;fontSize=24;labelBackgroundColor=default;fillColor=#dae8fc;strokeColor=#6c8ebf;" vertex="1" parent="1">
          <mxGeometry x="440" y="600" width="70" height="80" as="geometry" />
        </mxCell>
        <mxCell id="WzGXvEoTK6vFrNUiETrb-24" value="attachment_delete" style="rounded=1;whiteSpace=wrap;html=1;fontSize=24;fontFamily=Times New Roman;fillColor=#d5e8d4;strokeColor=#82b366;sketch=1;hachureGap=4;jiggle=2;curveFitting=1;labelBackgroundColor=none;" vertex="1" parent="1">
          <mxGeometry x="810" y="415" width="190" height="60" as="geometry" />
        </mxCell>
      </root>
    </mxGraphModel>
  </diagram>
</mxfile>
